<svg width="144" height="144" viewBox="0 0 144 144" fill="none" xmlns="http://www.w3.org/2000/svg">
<rect width="144" height="144" rx="8" fill="#D9D9D9"/>
<g clip-path="url(#clip0_650_1052)">
<path d="M72.0677 135.618C64.2113 135.618 56.8393 133.93 49.9518 130.552C43.1718 127.066 37.2527 122.381 32.1946 116.497C27.1365 110.505 23.1546 103.695 20.2489 96.0685C17.4508 88.4417 16.0518 80.4337 16.0518 72.0445C16.0518 63.6553 17.5046 55.6473 20.4103 48.0205C23.316 40.3939 27.298 33.6388 32.356 27.7554C37.5218 21.763 43.5484 17.0781 50.436 13.7005C57.3236 10.2141 64.6956 8.47083 72.552 8.47083C77.6099 8.47083 82.345 9.28797 86.7577 10.9222C91.2777 12.5565 95.5822 15.1169 99.672 18.6034L105.968 10.432H110.003V47.3668H105.968C104.784 41.2655 102.901 35.6544 100.318 30.5337C97.7348 25.304 94.1834 21.1638 89.6634 18.1131C85.2507 14.9535 79.4934 13.3737 72.3905 13.3737C67.7628 13.3737 63.5656 14.2453 59.7991 15.9885C56.1399 17.6228 52.9651 20.619 50.2746 24.9771C47.5842 29.2263 45.4856 35.1642 43.9789 42.7908C42.5799 50.4176 41.8803 60.1686 41.8803 72.0445C41.8803 83.9205 42.5799 93.6715 43.9789 101.298C45.378 108.925 47.3689 114.917 49.9518 119.275C52.6422 123.525 55.817 126.521 59.4762 128.264C63.2428 129.898 67.4399 130.715 72.0677 130.715C79.4934 130.715 85.5736 129.299 90.3091 126.466C95.0442 123.634 98.7571 119.82 101.448 115.026C104.138 110.232 106.129 104.894 107.421 99.0103H111.456V133.657H107.421L101.932 126.139C97.6271 129.408 92.892 131.805 87.7262 133.33C82.5605 134.855 77.3407 135.618 72.0677 135.618Z" fill="black"/>
<path d="M112.201 99.8683L98.8347 59.4197H98.5441L98.0356 57.2869L101.523 44.6376H103.702L121.935 99.8683H112.201ZM76.3154 100.971V99.1328H93.7497V100.971H76.3154ZM90.4808 83.6153V81.7767H114.017V83.6153H90.4808ZM103.484 100.971V99.1328H128.4V100.971H103.484ZM82.5627 99.8683L101.523 44.6376H103.702L99.2706 57.2869L84.9599 99.8683H82.5627Z" fill="black"/>
</g>
<defs>
<clipPath id="clip0_650_1052">
<rect width="113" height="128" fill="white" transform="translate(16 8)"/>
</clipPath>
</defs>
</svg>
